<?xml version="1.0" encoding="UTF-8"?>
<svg width="500px" height="500px" viewBox="0 0 500 500" version="1.1" xmlns="http://www.w3.org/2000/svg" xmlns:xlink="http://www.w3.org/1999/xlink">
    <!-- Generator: Sketch 53.2 (72643) - https://sketchapp.com -->
    <title>logo-dissenter-black-02</title>
    <desc>Created with Sketch.</desc>
    <g id="logo-dissenter-black-02" stroke="none" stroke-width="1" fill="none" fill-rule="evenodd">
        <g transform="translate(17.000000, 37.000000)">
            <path d="M244.885937,0 L193.657763,0 L65.5018905,0 L45.5665325,0 C20.4992438,0 0,20.5016933 0,45.5466667 L0,381.453333 C0,406.504 20.4992438,427 45.5665325,427 L65.5018905,427 L193.657763,427 L244.885937,427 C389.348933,427 467,326.3134 467,213.5 C467,100.6866 393.563837,0 244.885937,0" id="Fill-19" fill="#00d177"></path>
            <path d="M309.275885,155 L121.729792,155 C115.246045,155 110,149.623395 110,143.002906 C110,136.376605 115.246045,131 121.729792,131 L309.275885,131 C315.759633,131 321,136.376605 321,143.002906 C321,149.623395 315.759633,155 309.275885,155" id="Fill-20" fill="#000000"></path>
            <path d="M309.275885,225 L121.729792,225 C115.246045,225 110,219.623395 110,213.002906 C110,206.376605 115.246045,201 121.729792,201 L309.275885,201 C315.759633,201 321,206.376605 321,213.002906 C321,219.623395 315.759633,225 309.275885,225" id="Fill-21" fill="#000000"></path>
            <path d="M121.78718,296 C115.271711,296 110,290.623395 110,284.002906 C110,277.376605 115.271711,272 121.78718,272 L247.218525,272 C253.733994,272 259,277.376605 259,284.002906 C259,290.623395 253.733994,296 247.218525,296 L121.78718,296 Z" id="Fill-22" fill="#000000"></path>
        </g>
    </g>
</svg>